<svg xmlns="http://www.w3.org/2000/svg" xmlns:xlink="http://www.w3.org/1999/xlink" version="1.1" style="shape-rendering:geometricPrecision; text-rendering:geometricPrecision; image-rendering:optimizeQuality; fill-rule:evenodd; clip-rule:evenodd" viewBox="90.5 355.5 841.62 268.9">
<g><path style="opacity:1" fill="#11ccc0" d="M 663.5,461.5 C 662.732,462.263 662.232,463.263 662,464.5C 660.641,493.147 660.141,521.814 660.5,550.5C 658.945,558.338 657.278,566.172 655.5,574C 661.05,585.016 658.383,593.349 647.5,599C 639.504,601.19 633.004,599.023 628,592.5C 611.823,562.815 596.157,532.815 581,502.5C 577.724,496.892 574.057,491.558 570,486.5C 564.922,481.928 560.422,476.928 556.5,471.5C 555.771,466.87 555.437,462.203 555.5,457.5C 559.132,449.346 565.465,445.846 574.5,447C 576.949,447.725 579.283,448.725 581.5,450C 600.513,472.848 615.847,498.015 627.5,525.5C 627.418,490.306 629.918,455.306 635,420.5C 635.761,406.818 635.594,393.151 634.5,379.5C 633.734,365.99 639.901,357.99 653,355.5C 661.268,356.464 666.935,360.797 670,368.5C 671.346,399.762 669.179,430.762 663.5,461.5 Z"/></g>
<g><path style="opacity:1" fill="#11cdc1" d="M 314.5,509.5 C 315.804,503.734 315.804,498.067 314.5,492.5C 315.888,467.17 323.388,443.836 337,422.5C 348.488,410.673 361.655,401.173 376.5,394C 393.782,388.055 410.115,390.055 425.5,400C 446.952,412.452 464.118,429.285 477,450.5C 478.796,454.683 480.129,459.016 481,463.5C 482.532,475.457 482.865,487.457 482,499.5C 479.641,507.711 475.141,514.544 468.5,520C 452.541,533.104 434.208,540.771 413.5,543C 400.185,544.012 386.852,544.678 373.5,545C 384.255,560.422 397.588,573.089 413.5,583C 435.923,593.325 457.256,591.658 477.5,578C 489.147,566.693 497.98,553.526 504,538.5C 506.016,536.316 508.183,534.316 510.5,532.5C 502.512,515.19 494.012,498.19 485,481.5C 484.512,466.657 491.679,460.157 506.5,462C 509.249,463.123 511.749,464.623 514,466.5C 527,493.167 540,519.833 553,546.5C 556.76,533.202 565.26,528.702 578.5,533C 584.414,537.161 587.081,542.828 586.5,550C 588.084,568.734 582.084,584.4 568.5,597C 561.5,603 554.5,603 547.5,597C 540.23,588.954 533.564,580.454 527.5,571.5C 520.453,582.385 512.453,592.551 503.5,602C 460.362,632.515 417.696,631.848 375.5,600C 359.2,585.868 345.366,569.701 334,551.5C 326.609,537.729 320.109,523.729 314.5,509.5 Z M 394.5,427.5 C 399.034,427.267 403.368,428.1 407.5,430C 418.544,437.371 428.71,445.871 438,455.5C 444.763,466.552 448.096,478.552 448,491.5C 446.542,493.96 444.709,496.127 442.5,498C 436.898,500.201 431.231,502.201 425.5,504C 406.264,506.707 386.931,508.374 367.5,509C 363.384,509.325 359.384,510.159 355.5,511.5C 350.813,503.813 349.313,495.48 351,486.5C 353.617,473.693 357.617,461.359 363,449.5C 370.396,437.586 380.896,430.253 394.5,427.5 Z"/></g>
<g><path style="opacity:0.987" fill="#f9f9f9" d="M 211.5,436.5 C 211.167,464.175 211.5,491.841 212.5,519.5C 225.161,506.173 238.161,493.173 251.5,480.5C 258.022,480.177 264.355,480.51 270.5,481.5C 256.66,495.506 242.994,509.673 229.5,524C 245.048,541.709 260.714,559.209 276.5,576.5C 270.021,577.491 263.354,577.824 256.5,577.5C 241.163,561.661 226.33,545.328 212,528.5C 211.5,545.163 211.333,561.83 211.5,578.5C 205.402,579.117 199.735,578.45 194.5,576.5C 195.499,530.003 195.832,483.336 195.5,436.5C 200.833,436.5 206.167,436.5 211.5,436.5 Z"/></g>
<g><path style="opacity:0.988" fill="#f7f7f7" d="M 776.5,576.5 C 774.429,577.809 771.929,578.475 769,578.5C 766.5,578.333 764,578.167 761.5,578C 760.467,572.912 759.633,567.745 759,562.5C 750.655,574.84 738.988,580.84 724,580.5C 697.723,579.56 681.723,566.227 676,540.5C 671.79,517.793 678.624,499.293 696.5,485C 713.675,475.476 731.009,475.143 748.5,484C 752.361,486.696 755.694,489.863 758.5,493.5C 758.281,494.675 758.614,495.675 759.5,496.5C 760.5,476.511 760.833,456.511 760.5,436.5C 765.5,436.5 770.5,436.5 775.5,436.5C 775.168,483.336 775.501,530.003 776.5,576.5 Z M 718.5,492.5 C 739.92,490.445 753.087,499.779 758,520.5C 760.367,534.202 757.2,546.369 748.5,557C 735.226,567.123 721.226,568.123 706.5,560C 694.858,549.743 690.358,536.91 693,521.5C 695.726,506.615 704.226,496.949 718.5,492.5 Z"/></g>
<g><path style="opacity:0.556" fill="#bcbcbc" d="M 776.5,576.5 C 775.501,530.003 775.168,483.336 775.5,436.5C 770.5,436.5 765.5,436.5 760.5,436.5C 760.833,456.511 760.5,476.511 759.5,496.5C 758.614,495.675 758.281,494.675 758.5,493.5C 759.497,474.341 759.83,455.007 759.5,435.5C 765.167,435.5 770.833,435.5 776.5,435.5C 776.5,482.5 776.5,529.5 776.5,576.5 Z"/></g>
<g><path style="opacity:0.902" fill="#168a83" d="M 555.5,457.5 C 555.437,462.203 555.771,466.87 556.5,471.5C 554.953,469.193 554.287,466.527 554.5,463.5C 554.505,461.304 554.838,459.304 555.5,457.5 Z"/></g>
<g><path style="opacity:0.987" fill="#f4f4f4" d="M 123.5,477.5 C 134.053,476.444 144.053,478.278 153.5,483C 162.401,488.743 167.401,496.91 168.5,507.5C 162.833,507.5 157.167,507.5 151.5,507.5C 150.612,500.11 146.612,495.277 139.5,493C 131.397,490.851 123.73,491.851 116.5,496C 109.981,504.689 111.647,511.355 121.5,516C 132.167,519 142.833,522 153.5,525C 171.206,533.278 176.039,546.444 168,564.5C 161.712,573.898 152.879,579.065 141.5,580C 124.397,582.608 109.897,577.774 98,565.5C 94.2577,560.184 91.7577,554.35 90.5,548C 96.4908,547.501 102.491,547.334 108.5,547.5C 110.573,556.741 116.24,562.574 125.5,565C 133.045,566.126 140.379,565.46 147.5,563C 153.171,558.47 155.004,552.637 153,545.5C 150.353,540.582 146.187,537.749 140.5,537C 128.646,534.871 117.312,531.205 106.5,526C 96.7788,519.713 93.2788,510.879 96,499.5C 100.91,486.801 110.077,479.467 123.5,477.5 Z"/></g>
<g><path style="opacity:0.987" fill="#f1f1f1" d="M 840.5,477.5 C 877.986,477.321 895.653,495.988 893.5,533.5C 868.092,533.797 842.592,533.464 817,532.5C 815.841,544.363 820.341,553.863 830.5,561C 838.653,565.289 847.319,566.622 856.5,565C 865.01,562.49 871.01,557.157 874.5,549C 880.167,548.333 885.833,548.333 891.5,549C 881.097,575.026 862.097,585.026 834.5,579C 812.755,571.72 800.921,556.553 799,533.5C 797.613,503.187 811.447,484.52 840.5,477.5 Z M 845.5,491.5 C 863.754,491.925 874.421,501.092 877.5,519C 856.833,519.667 836.167,519.667 815.5,519C 819.015,502.647 829.015,493.481 845.5,491.5 Z"/></g>
<g><path style="opacity:0.06" fill="#545454" d="M 251.5,480.5 C 258.011,479.182 264.678,479.182 271.5,480.5C 271.376,481.107 271.043,481.44 270.5,481.5C 264.355,480.51 258.022,480.177 251.5,480.5 Z"/></g>
<g><path style="opacity:0.988" fill="#e4e5e5" d="M 314.5,492.5 C 315.804,498.067 315.804,503.734 314.5,509.5C 313.376,512.042 312.542,514.708 312,517.5C 311.667,537.5 311.333,557.5 311,577.5C 305.333,578.833 299.667,578.833 294,577.5C 293.333,545.167 293.333,512.833 294,480.5C 299.072,479.529 304.238,479.195 309.5,479.5C 309.801,485.511 310.301,491.511 311,497.5C 312.03,495.654 313.196,493.987 314.5,492.5 Z"/></g>
<g><path style="opacity:0.98" fill="#1f9e96" d="M 663.5,461.5 C 661.408,487.643 661.075,513.81 662.5,540C 662.028,543.677 661.362,547.177 660.5,550.5C 660.141,521.814 660.641,493.147 662,464.5C 662.232,463.263 662.732,462.263 663.5,461.5 Z"/></g>
<g><path style="opacity:0.427" fill="#aeaeae" d="M 211.5,436.5 C 206.167,436.5 200.833,436.5 195.5,436.5C 195.832,483.336 195.499,530.003 194.5,576.5C 194.5,529.5 194.5,482.5 194.5,435.5C 200.358,435.178 206.025,435.511 211.5,436.5 Z"/></g>
<g><path style="opacity:0.988" fill="#13ccc0" d="M 916.5,556.5 C 927.824,555.326 932.991,560.326 932,571.5C 928.807,578.123 923.64,580.29 916.5,578C 909.577,574.259 907.744,568.759 911,561.5C 912.73,559.598 914.563,557.931 916.5,556.5 Z"/></g>
<g><path style="opacity:0.009" fill="#1e1e1e" d="M 276.5,576.5 C 277.043,576.56 277.376,576.893 277.5,577.5C 270.344,578.819 263.344,578.819 256.5,577.5C 263.354,577.824 270.021,577.491 276.5,576.5 Z"/></g>
</svg>